<svg width="433" height="61" viewBox="0 0 433 61" fill="none" xmlns="http://www.w3.org/2000/svg">
<path d="M17.2 48.64C14.2133 48.64 11.5253 48.2773 9.136 47.552C6.74667 46.784 4.464 45.4613 2.288 43.584C1.73333 43.1147 1.30667 42.5813 1.008 41.984C0.709333 41.3867 0.56 40.7893 0.56 40.192C0.56 39.2107 0.901333 38.3573 1.584 37.632C2.30933 36.864 3.20533 36.48 4.272 36.48C5.08267 36.48 5.808 36.736 6.448 37.248C8.06933 38.5707 9.66933 39.5733 11.248 40.256C12.8693 40.9387 14.8533 41.28 17.2 41.28C18.7787 41.28 20.2293 41.0453 21.552 40.576C22.8747 40.064 23.9413 39.4027 24.752 38.592C25.5627 37.7387 25.968 36.7787 25.968 35.712C25.968 34.432 25.584 33.344 24.816 32.448C24.048 31.552 22.8747 30.8053 21.296 30.208C19.7173 29.568 17.712 29.0773 15.28 28.736C12.976 28.3947 10.9493 27.8827 9.2 27.2C7.45067 26.4747 5.97867 25.5787 4.784 24.512C3.632 23.4027 2.75733 22.1227 2.16 20.672C1.56267 19.1787 1.264 17.5147 1.264 15.68C1.264 12.9067 1.968 10.5387 3.376 8.576C4.82667 6.61333 6.768 5.12 9.2 4.096C11.632 3.072 14.32 2.56 17.264 2.56C20.0373 2.56 22.5973 2.98666 24.944 3.84C27.3333 4.65067 29.2747 5.696 30.768 6.976C32.0053 7.95733 32.624 9.088 32.624 10.368C32.624 11.3067 32.2613 12.16 31.536 12.928C30.8107 13.696 29.9573 14.08 28.976 14.08C28.336 14.08 27.76 13.888 27.248 13.504C26.5653 12.9067 25.648 12.352 24.496 11.84C23.344 11.2853 22.128 10.8373 20.848 10.496C19.568 10.112 18.3733 9.92 17.264 9.92C15.4293 9.92 13.872 10.1547 12.592 10.624C11.3547 11.0933 10.416 11.7333 9.776 12.544C9.136 13.3547 8.816 14.2933 8.816 15.36C8.816 16.64 9.17867 17.7067 9.904 18.56C10.672 19.3707 11.76 20.032 13.168 20.544C14.576 21.0133 16.2613 21.44 18.224 21.824C20.784 22.2933 23.024 22.848 24.944 23.488C26.9067 24.128 28.528 24.96 29.808 25.984C31.088 26.9653 32.048 28.224 32.688 29.76C33.328 31.2533 33.648 33.088 33.648 35.264C33.648 38.0373 32.88 40.4267 31.344 42.432C29.808 44.4373 27.7813 45.9733 25.264 47.04C22.7893 48.1067 20.1013 48.64 17.2 48.64ZM65.7555 13.76C66.8648 13.76 67.7822 14.144 68.5075 14.912C69.2328 15.6373 69.5955 16.5547 69.5955 17.664V33.92C69.5955 38.4427 68.3368 42.0267 65.8195 44.672C63.3022 47.3173 59.6755 48.64 54.9395 48.64C50.2035 48.64 46.5768 47.3173 44.0595 44.672C41.5848 42.0267 40.3475 38.4427 40.3475 33.92V17.664C40.3475 16.5547 40.7102 15.6373 41.4355 14.912C42.1608 14.144 43.0782 13.76 44.1875 13.76C45.2968 13.76 46.2142 14.144 46.9395 14.912C47.6648 15.6373 48.0275 16.5547 48.0275 17.664V33.92C48.0275 36.5227 48.6035 38.464 49.7555 39.744C50.9075 40.9813 52.6355 41.6 54.9395 41.6C57.2862 41.6 59.0355 40.9813 60.1875 39.744C61.3395 38.464 61.9155 36.5227 61.9155 33.92V17.664C61.9155 16.5547 62.2782 15.6373 63.0035 14.912C63.7288 14.144 64.6462 13.76 65.7555 13.76ZM95.638 13.12C98.6247 13.12 101.291 13.888 103.638 15.424C106.027 16.9173 107.905 18.9867 109.27 21.632C110.678 24.2773 111.382 27.3493 111.382 30.848C111.382 34.3467 110.678 37.44 109.27 40.128C107.905 42.7733 106.049 44.864 103.702 46.4C101.398 47.8933 98.7953 48.64 95.894 48.64C94.1873 48.64 92.5873 48.3627 91.094 47.808C89.6007 47.2533 88.278 46.5493 87.126 45.696C86.0167 44.8427 85.142 43.9893 84.502 43.136C83.9047 42.24 83.606 41.4933 83.606 40.896L85.59 40.064V56.896C85.59 58.0053 85.2273 58.9227 84.502 59.648C83.7767 60.416 82.8593 60.8 81.75 60.8C80.6407 60.8 79.7233 60.4373 78.998 59.712C78.2727 58.9867 77.91 58.048 77.91 56.896V17.664C77.91 16.5547 78.2727 15.6373 78.998 14.912C79.7233 14.144 80.6407 13.76 81.75 13.76C82.8593 13.76 83.7767 14.144 84.502 14.912C85.2273 15.6373 85.59 16.5547 85.59 17.664V20.8L84.502 20.224C84.502 19.6693 84.8007 19.008 85.398 18.24C85.9953 17.4293 86.806 16.64 87.83 15.872C88.854 15.0613 90.0273 14.4 91.35 13.888C92.7153 13.376 94.1447 13.12 95.638 13.12ZM94.678 20.16C92.8007 20.16 91.158 20.6293 89.75 21.568C88.342 22.5067 87.2327 23.7867 86.422 25.408C85.654 26.9867 85.27 28.8 85.27 30.848C85.27 32.8533 85.654 34.688 86.422 36.352C87.2327 37.9733 88.342 39.2533 89.75 40.192C91.158 41.1307 92.8007 41.6 94.678 41.6C96.5553 41.6 98.1767 41.1307 99.542 40.192C100.95 39.2533 102.038 37.9733 102.806 36.352C103.617 34.688 104.022 32.8533 104.022 30.848C104.022 28.8 103.617 26.9867 102.806 25.408C102.038 23.7867 100.95 22.5067 99.542 21.568C98.1767 20.6293 96.5553 20.16 94.678 20.16ZM134.226 48.64C130.599 48.64 127.442 47.8933 124.754 46.4C122.108 44.864 120.06 42.7947 118.61 40.192C117.202 37.5893 116.498 34.6453 116.498 31.36C116.498 27.52 117.266 24.256 118.802 21.568C120.38 18.8373 122.428 16.7467 124.946 15.296C127.463 13.8453 130.13 13.12 132.946 13.12C135.122 13.12 137.17 13.568 139.09 14.464C141.052 15.36 142.78 16.5973 144.274 18.176C145.767 19.712 146.94 21.504 147.794 23.552C148.69 25.6 149.138 27.776 149.138 30.08C149.095 31.104 148.69 31.936 147.922 32.576C147.154 33.216 146.258 33.536 145.234 33.536H120.786L118.866 27.136H142.354L140.946 28.416V26.688C140.86 25.4507 140.412 24.3413 139.602 23.36C138.834 22.3787 137.852 21.6107 136.658 21.056C135.506 20.4587 134.268 20.16 132.946 20.16C131.666 20.16 130.471 20.3307 129.362 20.672C128.252 21.0133 127.292 21.5893 126.482 22.4C125.671 23.2107 125.031 24.2987 124.562 25.664C124.092 27.0293 123.858 28.7573 123.858 30.848C123.858 33.152 124.327 35.1147 125.266 36.736C126.247 38.3147 127.484 39.5307 128.978 40.384C130.514 41.1947 132.135 41.6 133.842 41.6C135.42 41.6 136.679 41.472 137.618 41.216C138.556 40.96 139.303 40.6613 139.858 40.32C140.455 39.936 140.988 39.616 141.458 39.36C142.226 38.976 142.951 38.784 143.634 38.784C144.572 38.784 145.34 39.104 145.938 39.744C146.578 40.384 146.898 41.1307 146.898 41.984C146.898 43.136 146.3 44.1813 145.106 45.12C143.996 46.0587 142.439 46.8907 140.434 47.616C138.428 48.2987 136.359 48.64 134.226 48.64ZM159.688 48C158.578 48 157.661 47.6373 156.936 46.912C156.21 46.144 155.848 45.2053 155.848 44.096V17.664C155.848 16.5547 156.21 15.6373 156.936 14.912C157.661 14.144 158.578 13.76 159.688 13.76C160.797 13.76 161.714 14.144 162.44 14.912C163.165 15.6373 163.528 16.5547 163.528 17.664V23.68L163.08 19.392C163.549 18.368 164.146 17.472 164.872 16.704C165.64 15.8933 166.493 15.232 167.432 14.72C168.37 14.1653 169.373 13.76 170.44 13.504C171.506 13.248 172.573 13.12 173.64 13.12C174.92 13.12 175.986 13.4827 176.84 14.208C177.736 14.9333 178.184 15.7867 178.184 16.768C178.184 18.176 177.821 19.2 177.096 19.84C176.37 20.4373 175.581 20.736 174.728 20.736C173.917 20.736 173.17 20.5867 172.488 20.288C171.848 19.9893 171.101 19.84 170.248 19.84C169.48 19.84 168.69 20.032 167.88 20.416C167.112 20.7573 166.386 21.312 165.704 22.08C165.064 22.848 164.53 23.808 164.104 24.96C163.72 26.0693 163.528 27.392 163.528 28.928V44.096C163.528 45.2053 163.165 46.144 162.44 46.912C161.714 47.6373 160.797 48 159.688 48ZM233.535 5.376C234.644 5.93066 235.284 6.80533 235.455 8C235.668 9.19467 235.37 10.2827 234.559 11.264C234.004 12.032 233.279 12.4587 232.383 12.544C231.53 12.6293 230.655 12.4587 229.759 12.032C228.735 11.5627 227.647 11.2 226.495 10.944C225.386 10.688 224.212 10.56 222.975 10.56C220.671 10.56 218.602 10.9227 216.767 11.648C214.975 12.3733 213.439 13.4187 212.159 14.784C210.879 16.1067 209.898 17.6853 209.215 19.52C208.575 21.3547 208.255 23.3813 208.255 25.6C208.255 28.2027 208.618 30.464 209.343 32.384C210.111 34.304 211.156 35.904 212.479 37.184C213.802 38.464 215.359 39.424 217.151 40.064C218.943 40.6613 220.884 40.96 222.975 40.96C224.127 40.96 225.279 40.8533 226.431 40.64C227.583 40.4267 228.692 40.0427 229.759 39.488C230.655 39.0613 231.53 38.912 232.383 39.04C233.279 39.168 234.026 39.616 234.623 40.384C235.476 41.4507 235.775 42.56 235.519 43.712C235.306 44.8213 234.666 45.632 233.599 46.144C232.49 46.6987 231.338 47.168 230.143 47.552C228.991 47.8933 227.818 48.1493 226.623 48.32C225.428 48.5333 224.212 48.64 222.975 48.64C219.903 48.64 216.98 48.1493 214.207 47.168C211.476 46.1867 209.023 44.736 206.847 42.816C204.714 40.896 203.028 38.5067 201.791 35.648C200.554 32.7467 199.935 29.3973 199.935 25.6C199.935 22.3147 200.49 19.2853 201.599 16.512C202.751 13.7387 204.351 11.3493 206.399 9.344C208.49 7.296 210.943 5.71733 213.759 4.608C216.575 3.456 219.647 2.88 222.975 2.88C224.852 2.88 226.687 3.09333 228.479 3.52C230.271 3.94666 231.956 4.56533 233.535 5.376ZM259.644 13.12C262.716 13.12 265.041 13.7813 266.62 15.104C268.241 16.4267 269.351 18.1973 269.948 20.416C270.545 22.592 270.844 25.024 270.844 27.712V44.096C270.844 45.2053 270.481 46.144 269.756 46.912C269.031 47.6373 268.113 48 267.004 48C265.895 48 264.977 47.6373 264.252 46.912C263.527 46.144 263.164 45.2053 263.164 44.096V27.712C263.164 26.304 262.993 25.0453 262.652 23.936C262.311 22.784 261.692 21.8667 260.796 21.184C259.9 20.5013 258.62 20.16 256.956 20.16C255.335 20.16 253.948 20.5013 252.796 21.184C251.644 21.8667 250.769 22.784 250.172 23.936C249.617 25.0453 249.34 26.304 249.34 27.712V44.096C249.34 45.2053 248.977 46.144 248.252 46.912C247.527 47.6373 246.609 48 245.5 48C244.391 48 243.473 47.6373 242.748 46.912C242.023 46.144 241.66 45.2053 241.66 44.096V4.544C241.66 3.43466 242.023 2.51733 242.748 1.792C243.473 1.024 244.391 0.639999 245.5 0.639999C246.609 0.639999 247.527 1.024 248.252 1.792C248.977 2.51733 249.34 3.43466 249.34 4.544V20.416L248.38 20.224C248.764 19.4987 249.297 18.7307 249.98 17.92C250.663 17.0667 251.495 16.2773 252.476 15.552C253.457 14.8267 254.545 14.2507 255.74 13.824C256.935 13.3547 258.236 13.12 259.644 13.12ZM286.392 44.096C286.392 45.2053 286.029 46.144 285.304 46.912C284.579 47.6373 283.661 48 282.552 48C281.443 48 280.525 47.6373 279.8 46.912C279.075 46.144 278.712 45.2053 278.712 44.096V17.664C278.712 16.5547 279.075 15.6373 279.8 14.912C280.525 14.144 281.443 13.76 282.552 13.76C283.661 13.76 284.579 14.144 285.304 14.912C286.029 15.6373 286.392 16.5547 286.392 17.664V44.096ZM282.488 9.6C281.037 9.6 280.013 9.36533 279.416 8.896C278.819 8.42666 278.52 7.59466 278.52 6.4V5.184C278.52 3.94667 278.84 3.11467 279.48 2.688C280.163 2.21866 281.187 1.984 282.552 1.984C284.045 1.984 285.091 2.21866 285.688 2.688C286.285 3.15733 286.584 3.98933 286.584 5.184V6.4C286.584 7.63733 286.264 8.49066 285.624 8.96C284.984 9.38667 283.939 9.6 282.488 9.6ZM312.589 13.12C315.746 13.12 318.136 13.7813 319.757 15.104C321.421 16.4267 322.552 18.1973 323.149 20.416C323.789 22.592 324.109 25.024 324.109 27.712V44.096C324.109 45.2053 323.746 46.144 323.021 46.912C322.296 47.6373 321.378 48 320.269 48C319.16 48 318.242 47.6373 317.517 46.912C316.792 46.144 316.429 45.2053 316.429 44.096V27.712C316.429 26.304 316.237 25.0453 315.853 23.936C315.512 22.784 314.872 21.8667 313.933 21.184C312.994 20.5013 311.65 20.16 309.901 20.16C308.194 20.16 306.744 20.5013 305.549 21.184C304.397 21.8667 303.501 22.784 302.861 23.936C302.264 25.0453 301.965 26.304 301.965 27.712V44.096C301.965 45.2053 301.602 46.144 300.877 46.912C300.152 47.6373 299.234 48 298.125 48C297.016 48 296.098 47.6373 295.373 46.912C294.648 46.144 294.285 45.2053 294.285 44.096V17.664C294.285 16.5547 294.648 15.6373 295.373 14.912C296.098 14.144 297.016 13.76 298.125 13.76C299.234 13.76 300.152 14.144 300.877 14.912C301.602 15.6373 301.965 16.5547 301.965 17.664V20.416L301.005 20.224C301.389 19.4987 301.944 18.7307 302.669 17.92C303.394 17.0667 304.248 16.2773 305.229 15.552C306.21 14.8267 307.32 14.2507 308.557 13.824C309.794 13.3547 311.138 13.12 312.589 13.12ZM348.538 48.64C344.911 48.64 341.754 47.8933 339.066 46.4C336.421 44.864 334.373 42.7947 332.922 40.192C331.514 37.5893 330.81 34.6453 330.81 31.36C330.81 27.52 331.578 24.256 333.114 21.568C334.693 18.8373 336.741 16.7467 339.258 15.296C341.775 13.8453 344.442 13.12 347.258 13.12C349.434 13.12 351.482 13.568 353.402 14.464C355.365 15.36 357.093 16.5973 358.586 18.176C360.079 19.712 361.253 21.504 362.106 23.552C363.002 25.6 363.45 27.776 363.45 30.08C363.407 31.104 363.002 31.936 362.234 32.576C361.466 33.216 360.57 33.536 359.546 33.536H335.098L333.178 27.136H356.666L355.258 28.416V26.688C355.173 25.4507 354.725 24.3413 353.914 23.36C353.146 22.3787 352.165 21.6107 350.97 21.056C349.818 20.4587 348.581 20.16 347.258 20.16C345.978 20.16 344.783 20.3307 343.674 20.672C342.565 21.0133 341.605 21.5893 340.794 22.4C339.983 23.2107 339.343 24.2987 338.874 25.664C338.405 27.0293 338.17 28.7573 338.17 30.848C338.17 33.152 338.639 35.1147 339.578 36.736C340.559 38.3147 341.797 39.5307 343.29 40.384C344.826 41.1947 346.447 41.6 348.154 41.6C349.733 41.6 350.991 41.472 351.93 41.216C352.869 40.96 353.615 40.6613 354.17 40.32C354.767 39.936 355.301 39.616 355.77 39.36C356.538 38.976 357.263 38.784 357.946 38.784C358.885 38.784 359.653 39.104 360.25 39.744C360.89 40.384 361.21 41.1307 361.21 41.984C361.21 43.136 360.613 44.1813 359.418 45.12C358.309 46.0587 356.751 46.8907 354.746 47.616C352.741 48.2987 350.671 48.64 348.538 48.64ZM368.176 42.688C367.749 42.0907 367.557 41.3227 367.6 40.384C367.643 39.4453 368.197 38.6347 369.264 37.952C369.947 37.5253 370.672 37.3547 371.44 37.44C372.208 37.4827 372.955 37.8667 373.68 38.592C374.917 39.8293 376.219 40.7893 377.584 41.472C378.949 42.1547 380.656 42.496 382.704 42.496C383.344 42.4533 384.048 42.368 384.816 42.24C385.584 42.0693 386.245 41.728 386.8 41.216C387.397 40.6613 387.696 39.8293 387.696 38.72C387.696 37.7813 387.376 37.0347 386.736 36.48C386.096 35.9253 385.243 35.456 384.176 35.072C383.152 34.688 382 34.3253 380.72 33.984C379.397 33.6 378.032 33.1733 376.624 32.704C375.259 32.2347 374 31.6373 372.848 30.912C371.696 30.144 370.757 29.1413 370.032 27.904C369.307 26.6667 368.944 25.1093 368.944 23.232C368.944 21.0987 369.541 19.2853 370.736 17.792C371.931 16.2987 373.467 15.1467 375.344 14.336C377.264 13.5253 379.269 13.12 381.36 13.12C382.683 13.12 384.069 13.2907 385.52 13.632C386.971 13.9307 388.357 14.4427 389.68 15.168C391.003 15.8507 392.112 16.768 393.008 17.92C393.477 18.56 393.755 19.328 393.84 20.224C393.925 21.12 393.52 21.9307 392.624 22.656C391.984 23.168 391.237 23.4027 390.384 23.36C389.531 23.2747 388.827 22.976 388.272 22.464C387.547 21.5253 386.565 20.7787 385.328 20.224C384.133 19.6693 382.747 19.392 381.168 19.392C380.528 19.392 379.824 19.4773 379.056 19.648C378.331 19.776 377.691 20.096 377.136 20.608C376.581 21.0773 376.304 21.8453 376.304 22.912C376.304 23.8933 376.624 24.6827 377.264 25.28C377.904 25.8347 378.757 26.304 379.824 26.688C380.933 27.0293 382.107 27.3707 383.344 27.712C384.624 28.0533 385.925 28.4587 387.248 28.928C388.571 29.3973 389.787 30.016 390.896 30.784C392.005 31.552 392.901 32.5547 393.584 33.792C394.267 34.9867 394.608 36.5227 394.608 38.4C394.608 40.576 393.968 42.432 392.688 43.968C391.408 45.504 389.808 46.6773 387.888 47.488C385.968 48.256 384.005 48.64 382 48.64C379.483 48.64 376.965 48.2133 374.448 47.36C371.931 46.464 369.84 44.9067 368.176 42.688ZM417.163 48.64C413.536 48.64 410.379 47.8933 407.691 46.4C405.046 44.864 402.998 42.7947 401.547 40.192C400.139 37.5893 399.435 34.6453 399.435 31.36C399.435 27.52 400.203 24.256 401.739 21.568C403.318 18.8373 405.366 16.7467 407.883 15.296C410.4 13.8453 413.067 13.12 415.883 13.12C418.059 13.12 420.107 13.568 422.027 14.464C423.99 15.36 425.718 16.5973 427.211 18.176C428.704 19.712 429.878 21.504 430.731 23.552C431.627 25.6 432.075 27.776 432.075 30.08C432.032 31.104 431.627 31.936 430.859 32.576C430.091 33.216 429.195 33.536 428.171 33.536H403.723L401.803 27.136H425.291L423.883 28.416V26.688C423.798 25.4507 423.35 24.3413 422.539 23.36C421.771 22.3787 420.79 21.6107 419.595 21.056C418.443 20.4587 417.206 20.16 415.883 20.16C414.603 20.16 413.408 20.3307 412.299 20.672C411.19 21.0133 410.23 21.5893 409.419 22.4C408.608 23.2107 407.968 24.2987 407.499 25.664C407.03 27.0293 406.795 28.7573 406.795 30.848C406.795 33.152 407.264 35.1147 408.203 36.736C409.184 38.3147 410.422 39.5307 411.915 40.384C413.451 41.1947 415.072 41.6 416.779 41.6C418.358 41.6 419.616 41.472 420.555 41.216C421.494 40.96 422.24 40.6613 422.795 40.32C423.392 39.936 423.926 39.616 424.395 39.36C425.163 38.976 425.888 38.784 426.571 38.784C427.51 38.784 428.278 39.104 428.875 39.744C429.515 40.384 429.835 41.1307 429.835 41.984C429.835 43.136 429.238 44.1813 428.043 45.12C426.934 46.0587 425.376 46.8907 423.371 47.616C421.366 48.2987 419.296 48.64 417.163 48.64Z" fill="url(#paint0_linear_306_3)"/>
<defs>
<linearGradient id="paint0_linear_306_3" x1="-2" y1="-3" x2="176.366" y2="240.473" gradientUnits="userSpaceOnUse">
<stop stop-color="#B48EAD"/>
<stop offset="1" stop-color="#88C0D0"/>
</linearGradient>
</defs>
</svg>
