<svg width="280" height="280" viewBox="0 0 280 280" fill="none" xmlns="http://www.w3.org/2000/svg">
<circle cx="140" cy="140" r="140" fill="#2E3440"/>
<path d="M100.088 190.28C94.1142 190.28 88.7382 189.555 83.9595 188.104C79.1808 186.568 74.6155 183.923 70.2635 180.168C69.1542 179.229 68.3008 178.163 67.7035 176.968C67.1062 175.773 66.8075 174.579 66.8075 173.384C66.8075 171.421 67.4902 169.715 68.8555 168.264C70.3062 166.728 72.0982 165.96 74.2315 165.96C75.8528 165.96 77.3035 166.472 78.5835 167.496C81.8262 170.141 85.0262 172.147 88.1835 173.512C91.4262 174.877 95.3942 175.56 100.088 175.56C103.245 175.56 106.146 175.091 108.792 174.152C111.437 173.128 113.57 171.805 115.192 170.184C116.813 168.477 117.624 166.557 117.624 164.424C117.624 161.864 116.856 159.688 115.32 157.896C113.784 156.104 111.437 154.611 108.28 153.416C105.122 152.136 101.112 151.155 96.2475 150.472C91.6395 149.789 87.5862 148.765 84.0875 147.4C80.5888 145.949 77.6448 144.157 75.2555 142.024C72.9515 139.805 71.2022 137.245 70.0075 134.344C68.8128 131.357 68.2155 128.029 68.2155 124.36C68.2155 118.813 69.6235 114.077 72.4395 110.152C75.3408 106.227 79.2235 103.24 84.0875 101.192C88.9515 99.144 94.3275 98.12 100.216 98.12C105.762 98.12 110.882 98.9733 115.576 100.68C120.354 102.301 124.237 104.392 127.224 106.952C129.698 108.915 130.936 111.176 130.936 113.736C130.936 115.613 130.21 117.32 128.76 118.856C127.309 120.392 125.602 121.16 123.64 121.16C122.36 121.16 121.208 120.776 120.184 120.008C118.818 118.813 116.984 117.704 114.68 116.68C112.376 115.571 109.944 114.675 107.384 113.992C104.824 113.224 102.434 112.84 100.216 112.84C96.5462 112.84 93.4315 113.309 90.8715 114.248C88.3968 115.187 86.5195 116.467 85.2395 118.088C83.9595 119.709 83.3195 121.587 83.3195 123.72C83.3195 126.28 84.0448 128.413 85.4955 130.12C87.0315 131.741 89.2075 133.064 92.0235 134.088C94.8395 135.027 98.2102 135.88 102.136 136.648C107.256 137.587 111.736 138.696 115.576 139.976C119.501 141.256 122.744 142.92 125.304 144.968C127.864 146.931 129.784 149.448 131.064 152.52C132.344 155.507 132.984 159.176 132.984 163.528C132.984 169.075 131.448 173.853 128.376 177.864C125.304 181.875 121.25 184.947 116.216 187.08C111.266 189.213 105.89 190.28 100.088 190.28ZM210.382 103.752C212.601 104.861 213.881 106.611 214.223 109C214.649 111.389 214.052 113.565 212.431 115.528C211.321 117.064 209.871 117.917 208.079 118.088C206.372 118.259 204.623 117.917 202.831 117.064C200.783 116.125 198.607 115.4 196.303 114.888C194.084 114.376 191.737 114.12 189.263 114.12C184.655 114.12 180.516 114.845 176.847 116.296C173.263 117.747 170.191 119.837 167.631 122.568C165.071 125.213 163.108 128.371 161.743 132.04C160.463 135.709 159.823 139.763 159.823 144.2C159.823 149.405 160.548 153.928 161.999 157.768C163.535 161.608 165.625 164.808 168.271 167.368C170.916 169.928 174.031 171.848 177.615 173.128C181.199 174.323 185.081 174.92 189.263 174.92C191.567 174.92 193.871 174.707 196.175 174.28C198.479 173.853 200.697 173.085 202.831 171.976C204.623 171.123 206.372 170.824 208.079 171.08C209.871 171.336 211.364 172.232 212.559 173.768C214.265 175.901 214.863 178.12 214.351 180.424C213.924 182.643 212.644 184.264 210.511 185.288C208.292 186.397 205.988 187.336 203.599 188.104C201.295 188.787 198.948 189.299 196.559 189.64C194.169 190.067 191.737 190.28 189.263 190.28C183.119 190.28 177.273 189.299 171.727 187.336C166.265 185.373 161.359 182.472 157.007 178.632C152.74 174.792 149.369 170.013 146.895 164.296C144.42 158.493 143.183 151.795 143.183 144.2C143.183 137.629 144.292 131.571 146.51 126.024C148.815 120.477 152.015 115.699 156.111 111.688C160.292 107.592 165.199 104.435 170.831 102.216C176.463 99.912 182.607 98.76 189.263 98.76C193.017 98.76 196.687 99.1867 200.271 100.04C203.855 100.893 207.225 102.131 210.382 103.752Z" fill="#B48EAD"/>
</svg>
